<?xml version="1.0" standalone="no"?>
<!DOCTYPE svg PUBLIC "-//W3C//DTD SVG 20010904//EN"
 "http://www.w3.org/TR/2001/REC-SVG-20010904/DTD/svg10.dtd">
<svg version="1.0" xmlns="http://www.w3.org/2000/svg"
 width="327.000000pt" height="327.000000pt" viewBox="0 0 327.000000 327.000000"
 preserveAspectRatio="xMidYMid meet">
<metadata>
Created by potrace 1.11, written by Peter Selinger 2001-2013
</metadata>
<g transform="translate(0.000000,327.000000) scale(0.100000,-0.100000)"
fill="#000000" stroke="none">
<path d="M1539 3086 c-2 -2 -29 -6 -59 -9 -289 -32 -591 -232 -726 -482 -20
-38 -39 -72 -40 -74 -2 -2 -36 -6 -76 -8 -149 -9 -285 -62 -402 -159 -108 -89
-169 -183 -206 -315 -87 -315 114 -654 443 -748 97 -28 135 -32 344 -31 309 1
324 -13 329 -288 2 -134 1 -147 -22 -195 -38 -82 -27 -165 29 -225 88 -94 254
-66 308 52 25 55 23 109 -6 176 -21 49 -23 71 -25 210 -2 207 -6 248 -30 317
-25 70 -61 118 -124 161 -90 60 -133 67 -390 64 -126 -1 -253 2 -282 7 -218
41 -357 253 -292 447 41 121 128 201 260 240 29 9 111 17 205 20 86 2 158 6
160 8 3 2 7 23 9 46 25 213 258 440 509 496 323 72 668 -78 803 -347 23 -46
45 -102 48 -124 3 -22 8 -42 10 -44 3 -3 73 -6 157 -7 83 -1 168 -4 187 -8
137 -23 228 -91 287 -216 66 -138 9 -321 -130 -417 -85 -58 -128 -66 -367 -69
-118 -2 -242 -9 -275 -15 -112 -21 -213 -88 -255 -169 -39 -76 -46 -136 -43
-353 2 -194 1 -210 -18 -247 -28 -53 -34 -101 -19 -147 26 -80 88 -131 168
-138 53 -4 99 12 142 51 65 59 80 149 39 228 -18 35 -21 62 -25 206 -2 95 0
180 6 200 24 82 91 107 297 110 249 3 367 28 491 104 139 85 258 248 292 402
11 47 14 180 6 219 -44 211 -163 363 -362 463 -93 47 -186 67 -334 72 -33 1
-38 6 -79 78 -58 99 -208 251 -306 308 -164 95 -326 142 -513 149 -66 2 -121
3 -123 1z m-184 -2326 c8 -7 20 -29 26 -50 34 -112 -123 -173 -177 -68 -22 42
-5 101 34 123 30 17 94 14 117 -5z m728 0 c31 -24 45 -81 28 -116 -6 -13 -24
-32 -41 -42 -97 -60 -193 73 -109 151 36 33 85 36 122 7z"/>
<path d="M1319 2071 c-22 -18 -23 -24 -24 -182 -1 -117 2 -172 11 -190 23 -46
68 -52 110 -15 l28 23 1 159 c1 164 -6 205 -40 218 -30 11 -62 6 -86 -13z"/>
<path d="M1576 1999 c-26 -20 -26 -21 -26 -159 0 -138 0 -139 26 -159 36 -28
70 -26 99 5 22 24 23 31 22 160 -2 130 -3 137 -26 155 -30 25 -62 24 -95 -2z"/>
<path d="M1835 1995 c-24 -23 -25 -29 -25 -155 0 -126 1 -132 25 -155 29 -30
64 -32 96 -6 23 18 24 26 27 155 3 134 3 136 -22 161 -32 32 -70 32 -101 0z"/>
<path d="M1070 1930 c-17 -17 -20 -33 -20 -125 0 -94 2 -106 22 -125 28 -26
68 -26 102 1 25 20 26 24 26 122 0 109 -3 118 -37 136 -33 17 -71 13 -93 -9z"/>
<path d="M2100 1930 c-21 -21 -22 -24 -22 -125 0 -101 1 -104 22 -125 26 -26
70 -26 103 0 24 19 25 25 25 121 1 94 -1 103 -23 125 -30 30 -77 32 -105 4z"/>
<path d="M1594 1424 c-41 -20 -63 -62 -66 -120 -1 -27 2 -211 6 -410 7 -311 6
-363 -7 -375 -42 -42 -63 -121 -48 -176 25 -90 95 -144 185 -144 90 0 159 52
181 138 19 72 7 117 -46 185 -24 29 -23 10 -32 623 -4 214 -12 251 -59 276
-32 17 -82 19 -114 3z m140 -975 c36 -43 35 -91 -3 -130 -41 -40 -91 -40 -132
0 -38 39 -39 87 -3 130 21 26 33 31 69 31 36 0 48 -5 69 -31z"/>
</g>
</svg>
