<?xml version="1.0" encoding="UTF-8"?>
<!DOCTYPE svg PUBLIC "-//W3C//DTD SVG 1.1//EN" "http://www.w3.org/Graphics/SVG/1.1/DTD/svg11.dtd">
<!-- Creator: CorelDRAW 2020 (64-Bit) -->
<svg xmlns="http://www.w3.org/2000/svg" xml:space="preserve" width="8.5in" height="11in" version="1.1" style="shape-rendering:geometricPrecision; text-rendering:geometricPrecision; image-rendering:optimizeQuality; fill-rule:evenodd; clip-rule:evenodd"
viewBox="0 0 8500 11000"
 xmlns:xlink="http://www.w3.org/1999/xlink"
 xmlns:xodm="http://www.corel.com/coreldraw/odm/2003">
 <defs>
  <style type="text/css">
   <![CDATA[
    .str2 {stroke:#FEFEFE;stroke-width:111.11;stroke-miterlimit:2.61313}
    .str0 {stroke:#FEFEFE;stroke-width:10.42;stroke-miterlimit:2.61313}
    .str3 {stroke:#FEFEFE;stroke-width:97.22;stroke-miterlimit:2.61313}
    .str1 {stroke:#FEFEFE;stroke-width:138.89;stroke-miterlimit:2.61313}
    .fil1 {fill:#FEFEFE}
    .fil2 {fill:#00AFEF}
    .fil0 {fill:#00AFEF;fill-rule:nonzero}
   ]]>
  </style>
 </defs>
 <g id="Layer_x0020_1">
  <metadata id="CorelCorpID_0Corel-Layer"/>
  <path class="fil0" d="M1770.83 4434.31c0,1587.73 2113.67,4167.48 2203.63,4276.21l273.06 331.15 273.06 -331.15c89.96,-109.08 2203.63,-2688.48 2203.63,-4276.21 0,-1366.02 -1111.02,-2476.69 -2476.69,-2476.69 -1365.67,0 -2476.69,1111.02 -2476.69,2476.69z"/>
  <g id="_2321042045808">
   <path class="fil1 str0" d="M3920.36 4021.87l0 0c45.17,0 81.74,36.57 81.74,81.74l0 333.41c0,45.17 -36.57,81.74 -81.74,81.74l0 0c-45.17,0 -81.74,-36.56 -81.74,-81.74l0 -333.41c0,-45.17 36.57,-81.74 81.74,-81.74z"/>
   <path class="fil1 str0" d="M4525.88 4106.84l0 0c45.17,0 81.74,36.57 81.74,81.74l0 248.44c0,45.17 -36.57,81.74 -81.74,81.74l0 0c-45.17,0 -81.74,-36.56 -81.74,-81.74l0 -248.44c0,-45.17 36.56,-81.74 81.74,-81.74z"/>
   <path class="fil1 str1" d="M4781.68 5460.95l0 0c-8.78,-112.88 -26.35,-358.21 20.07,-441.15 173.13,-308.69 751.47,79.47 1135.36,-421.56 245.89,-320.2 140.51,-770.56 -255.93,-966.37 -149.29,-73.72 -253.42,-73.72 -441.59,-74.87 -23.84,-25.34 -70.26,-137.07 -158.07,-245.33 -347.51,-427.32 -1041.27,-520.62 -1510.47,-184.29 -148.03,105.96 -304.85,272.98 -362.56,464.18 -186.93,11.52 -278.51,3.46 -432.81,84.08 -558.27,291.41 -461.67,989.41 57.71,1190.97 352.53,137.07 710.07,-63.35 859.36,167.02 53.94,82.93 47.67,314.44 43.91,437.69l181.91 0c-28.85,-305.23 66.49,-587.43 -232.09,-698 -245.89,-90.99 -590.89,76.02 -871.91,-102.51 -358.8,-228.06 -291.05,-710.67 75.28,-863.86 155.56,-65.65 278.51,-42.61 456.65,-52.98 67.74,-467.63 767.78,-937.57 1450.25,-480.31 114.16,76.02 272.23,275.28 302.34,450.35 252.17,2.31 533.18,-41.46 713.84,243.03 160.58,253.4 47.67,520.62 -144.27,654.23 -269.72,186.59 -609.7,35.7 -859.36,129.01 -303.6,114.03 -193.2,401.98 -210.76,712.96l183.16 0 -0.01 -2.29z"/>
   <path class="fil1 str2" d="M4339.81 5845.92c-10.76,-254.9 -11.83,-552.81 -16.13,-815.24 -1.08,-79.59 12.91,-183.91 -79.59,-181.76 -96.8,2.15 -74.21,121.54 -73.14,194.67 5.38,259.2 15.06,548.51 13.98,802.33l154.87 0 0 -0z"/>
   <path class="fil2 str3" d="M3826.8 5503.05c94.08,0 169.34,75.26 169.34,169.34 0,94.08 -75.26,169.34 -169.34,169.34 -94.08,0 -169.34,-75.26 -169.34,-169.34 0,-94.07 75.26,-169.34 169.34,-169.34z"/>
   <path class="fil2 str3" d="M4689.12 5503.21c94.07,0 169.34,75.27 169.34,169.34 0,94.08 -75.26,169.34 -169.34,169.34 -94.08,0 -169.34,-75.26 -169.34,-169.34 0,-94.07 75.26,-169.34 169.34,-169.34z"/>
   <path class="fil2 str3" d="M4267.2 5853.5c94.08,0 169.34,75.26 169.34,169.34 0,94.08 -75.26,169.34 -169.34,169.34 -94.07,0 -169.34,-75.26 -169.34,-169.34 0,-94.07 75.26,-169.34 169.34,-169.34z"/>
   <path class="fil1 str0" d="M4841.18 4188.57l0 0c45.17,0 81.74,29.31 81.74,65.52l0 199.15c0,36.21 -36.57,65.52 -81.74,65.52l0 0c-45.17,0 -81.74,-29.31 -81.74,-65.52l0 -199.15c0,-36.21 36.57,-65.52 81.74,-65.52z"/>
   <path class="fil1 str0" d="M4218.44 4106.84l0 0c45.17,0 81.74,36.57 81.74,81.74l0 248.44c0,45.17 -36.57,81.74 -81.74,81.74l0 0c-45.17,0 -81.74,-36.56 -81.74,-81.74l0 -248.44c0,-45.17 36.56,-81.74 81.74,-81.74z"/>
   <path class="fil1 str0" d="M3632.7 4188.57l0 0c45.17,0 81.74,29.31 81.74,65.52l0 199.15c0,36.21 -36.57,65.52 -81.74,65.52l0 0c-45.17,0 -81.74,-29.31 -81.74,-65.52l0 -199.15c0,-36.21 36.57,-65.52 81.74,-65.52z"/>
  </g>
 </g>
</svg>
