<?xml version="1.0" encoding="UTF-8"?>
<!DOCTYPE svg PUBLIC "-//W3C//DTD SVG 1.1//EN" "http://www.w3.org/Graphics/SVG/1.1/DTD/svg11.dtd">
<!-- Creator: CorelDRAW 2020 (64-Bit) -->
<svg xmlns="http://www.w3.org/2000/svg" xml:space="preserve" width="8.5in" height="11in" version="1.1" style="shape-rendering:geometricPrecision; text-rendering:geometricPrecision; image-rendering:optimizeQuality; fill-rule:evenodd; clip-rule:evenodd"
viewBox="0 0 8500 11000"
 xmlns:xlink="http://www.w3.org/1999/xlink"
 xmlns:xodm="http://www.corel.com/coreldraw/odm/2003">
 <defs>
  <style type="text/css">
   <![CDATA[
    .str2 {stroke:white;stroke-width:142.37;stroke-miterlimit:2.61313}
    .str0 {stroke:white;stroke-width:166.67;stroke-miterlimit:2.61313}
    .str1 {stroke:#82E9F9;stroke-width:20.83;stroke-miterlimit:2.61313}
    .fil4 {fill:none}
    .fil2 {fill:#24AAC4}
    .fil3 {fill:white}
    .fil1 {fill:#90D6EA;fill-rule:nonzero}
    .fil0 {fill:#82E9F9;fill-rule:nonzero}
   ]]>
  </style>
 </defs>
 <g id="Layer_x0020_1">
  <metadata id="CorelCorpID_0Corel-Layer"/>
  <path class="fil0" d="M4809.89 1325.69c1233.5,0 2231.25,997.76 2231.25,2231.25 0,290.53 -139.46,725.07 -355.69,1197.39 -216.24,472.73 -506.76,987.38 -797.7,1462.19 -512.99,838.38 -964.14,1463.01 -1077.86,1619.07 -113.72,-156.06 -564.87,-780.69 -1077.86,-1619.07 -290.94,-474.81 -581.47,-989.45 -797.7,-1462.19 -216.23,-472.31 -355.69,-906.86 -355.69,-1197.39 0,-1233.5 997.76,-2231.25 2231.25,-2231.25z"/>
  <path class="fil1" d="M4809.89 1113.19c-1348.46,0 -2443.75,1095.29 -2443.75,2443.75 0,354.86 152.74,801.02 374.78,1286.2 222.04,484.77 515.89,1005.22 809.33,1484.59 587.28,958.74 1174.15,1754.79 1174.15,1754.79l85.5 116.21 85.5 -116.21c0,0 586.86,-796.05 1174.14,-1754.79 293.43,-479.37 587.28,-999.83 809.33,-1484.59 222.05,-485.18 374.78,-931.35 374.78,-1286.2 0,-1348.46 -1095.29,-2443.75 -2443.75,-2443.75z"/>
  <ellipse class="fil2 str0" cx="4785.76" cy="3473.74" rx="1990.95" ry="1994.93"/>
  <g id="_2805596162816">
   <path class="fil3 str1" d="M5232.25 4492.97l0 0c-7.63,-107.72 -22.88,-343.19 18.11,-422.31 151.57,-295.52 660.63,75.31 998.09,-403.24 215.44,-306.01 123.93,-737.85 -224.98,-924.69 -130.6,-70.54 -222.12,-70.54 -387.99,-71.5 -20.97,-23.83 -61.01,-131.56 -138.23,-234.51 -305.05,-408.96 -915.16,-497.62 -1327.93,-176.36 -129.65,101.05 -267.87,261.2 -318.4,444.23 -163.96,11.44 -245,2.86 -380.36,80.07 -489.99,279.31 -406.1,947.57 50.52,1139.18 309.82,130.6 623.45,-61.01 755,159.2 47.67,80.07 41.94,300.29 38.13,418.5l159.2 0c-25.74,-292.66 58.15,-562.44 -204,-668.26 -216.4,-86.75 -519.54,73.4 -766.44,-98.19 -314.59,-218.3 -255.48,-679.7 65.78,-826.5 136.32,-61.96 245,-40.99 401.33,-50.52 60.06,-448.05 673.98,-897.05 1273.59,-459.48 100.09,72.45 239.28,264.06 265.97,430.89 221.16,1.91 469.02,-40.04 627.26,231.65 141.09,242.13 41.94,498.57 -126.79,626.31 -236.42,178.26 -535.75,33.37 -755,123.93 -265.97,109.63 -169.69,385.13 -185.89,681.6l161.11 0 1.91 -0z"/>
   <path class="fil3" d="M4858.56 4821.85c-11.44,-261.2 -11.44,-566.26 -16.2,-835.08 -1.91,-81.98 13.35,-188.75 -81.98,-186.85 -99.14,2.86 -76.26,123.93 -75.31,199.24 4.77,265.97 16.2,562.44 14.3,821.74l159.2 0 0 0.96z"/>
   <path class="fil4 str2" d="M4379.06 4504.41c81.98,0 148.71,66.73 148.71,148.71 0,81.98 -66.73,148.71 -148.71,148.71 -81.98,0 -148.71,-66.73 -148.71,-148.71 0,-81.98 66.73,-148.71 148.71,-148.71z"/>
   <path class="fil4 str2" d="M5156.94 4504.41c81.98,0 148.71,66.73 148.71,148.71 0,81.98 -66.73,148.71 -148.71,148.71 -81.98,0 -148.71,-66.73 -148.71,-148.71 0,-81.98 66.73,-148.71 148.71,-148.71z"/>
   <path class="fil4 str2" d="M4771.81 4833.3c81.98,0 148.71,66.73 148.71,148.71 0,81.98 -66.73,148.71 -148.71,148.71 -81.98,0 -148.71,-66.73 -148.71,-148.71 0,-81.98 66.73,-148.71 148.71,-148.71z"/>
  </g>
 </g>
</svg>
